<?xml version="1.0" encoding="UTF-8" standalone="no"?>
<svg width="23px" height="22px" viewBox="0 0 23 22" version="1.1" xmlns="http://www.w3.org/2000/svg" xmlns:xlink="http://www.w3.org/1999/xlink">
    <!-- Generator: Sketch 45.1 (43504) - http://www.bohemiancoding.com/sketch -->
    <title>小图标/标题图标/主页</title>
    <desc>Created with Sketch.</desc>
    <defs></defs>
    <g id="Symbols" stroke="none" stroke-width="1" fill="none" fill-rule="evenodd">
        <g id="小图标/标题图标/主页" stroke-width="0.8" stroke="#666666">
            <g id="Group-3-Copy">
                <path d="M9.4334473,20.7651683 L9.4334473,16.9404488 C9.4334473,16.4433926 9.83639102,16.0404488 10.3334473,16.0404488 L12.9397878,16.0404488 C13.436844,16.0404488 13.8397878,16.4433926 13.8397878,16.9404488 L13.8397878,20.7651683 L17.8492984,20.7651683 C18.1806693,20.7651683 18.4492984,20.4965392 18.4492984,20.1651683 L18.4492984,11.14869 L22.1058997,11.14869 C22.1509571,11.14869 22.1919546,11.1350915 22.2181809,11.1145917 C22.2415975,11.0962882 22.2414673,11.0988432 22.2246775,11.0832248 L11.7553937,1.34441066 C11.7524186,1.34172009 11.7524186,1.34172009 11.7488972,1.33888427 C11.6869573,1.29046904 11.5712128,1.29476019 11.5178382,1.34441066 L1.04855444,11.0832248 C1.03842985,11.092643 1.03661752,11.0966159 1.03661752,11.0961451 C1.03661752,11.1097714 1.08225871,11.14869 1.16733221,11.14869 L4.82393662,11.14869 L4.82393662,20.1651683 C4.82393662,20.4965392 5.09256577,20.7651683 5.42393662,20.7651683 L9.4334473,20.7651683 Z" id="Combined-Shape"></path>
            </g>
        </g>
    </g>
</svg>